HIERARCHY
ROOT Hips
{
	OFFSET -3.958830 18.904000 13.208200
	CHANNELS 6 Xposition Yposition Zposition Zrotation Yrotation Xrotation 
	JOINT LHipJoint
	{
		OFFSET 0.000000 0.000000 0.000000
		CHANNELS 3 Zrotation Yrotation Xrotation
		JOINT LeftUpLeg
		{
			OFFSET 1.800000 -1.400000 0.085000
			CHANNELS 3 Zrotation Yrotation Xrotation
			JOINT LeftLeg
			{
				OFFSET 2.215000 -6.000000 0.000000
				CHANNELS 3 Zrotation Yrotation Xrotation
				JOINT LeftFoot
				{
					OFFSET 2.500000 -6.900000 0.000000
					CHANNELS 3 Zrotation Yrotation Xrotation
					JOINT LeftToeBase
					{
						OFFSET 0.200000 -0.500000 1.950000
						CHANNELS 3 Zrotation Yrotation Xrotation
						End Site
						{
							OFFSET 0.000000 0.000000 0.000000
						}
					}
				}
			}
		}
	}
	JOINT RHipJoint
	{
		OFFSET 0.000000 0.000000 0.000000
		CHANNELS 3 Zrotation Yrotation Xrotation
		JOINT RightUpLeg
		{
			OFFSET -1.800000 -1.400000 0.085000
			CHANNELS 3 Zrotation Yrotation Xrotation
			JOINT RightLeg
			{
				OFFSET -2.215000 -6.000000 0.000000
				CHANNELS 3 Zrotation Yrotation Xrotation
				JOINT RightFoot
				{
					OFFSET -2.500000 -6.900000 0.000000
					CHANNELS 3 Zrotation Yrotation Xrotation
					JOINT RightToeBase
					{
						OFFSET -0.200000 -0.500000 1.950000
						CHANNELS 3 Zrotation Yrotation Xrotation
						End Site
						{
							OFFSET 0.000000 0.000000 0.000000
						}
					}
				}
			}
		}
	}
	JOINT LowerBack
	{
		OFFSET 0.000000 0.000000 0.000000
		CHANNELS 3 Zrotation Yrotation Xrotation
		JOINT Spine
		{
			OFFSET -0.087000 1.940000 -0.288900
			CHANNELS 3 Zrotation Yrotation Xrotation
			JOINT Spine1
			{
				OFFSET 0.000000 1.950000 0.060000
				CHANNELS 3 Zrotation Yrotation Xrotation
				JOINT Neck
				{
					OFFSET 0.000000 0.000000 0.000000
					CHANNELS 3 Zrotation Yrotation Xrotation
					JOINT Neck1
					{
						OFFSET 0.000000 1.600000 0.340000
						CHANNELS 3 Zrotation Yrotation Xrotation
						JOINT Head
						{
							OFFSET 0.000000 1.667000 -0.240000
							CHANNELS 3 Zrotation Yrotation Xrotation
							End Site
							{
								OFFSET 0.000000 0.000000 0.000000
							}
						}
					}
				}
				JOINT LeftShoulder
				{
					OFFSET 0.000000 0.000000 0.000000
					CHANNELS 3 Zrotation Yrotation Xrotation
					JOINT LeftArm
					{
						OFFSET 2.700000 1.550000 -0.730000
						CHANNELS 3 Zrotation Yrotation Xrotation
						JOINT LeftForeArm
						{
							OFFSET 5.450000 0.000000 0.000000
							CHANNELS 3 Zrotation Yrotation Xrotation
							JOINT LeftHand
							{
								OFFSET 3.450000 0.000000 0.000000
								CHANNELS 3 Zrotation Yrotation Xrotation
								JOINT LeftHandIndex1
								{
									OFFSET 0.750000 0.000000 0.000000
									CHANNELS 3 Zrotation Yrotation Xrotation
									End Site
									{
										OFFSET 0.000000 0.000000 0.000000
									}
								}
							}
						}
					}
				}
				JOINT RightShoulder
				{
					OFFSET 0.000000 0.000000 0.000000
					CHANNELS 3 Zrotation Yrotation Xrotation
					JOINT RightArm
					{
						OFFSET -2.700000 1.550000 -0.730000
						CHANNELS 3 Zrotation Yrotation Xrotation
						JOINT RightForeArm
						{
							OFFSET -5.450000 0.000000 0.000000
							CHANNELS 3 Zrotation Yrotation Xrotation
							JOINT RightHand
							{
								OFFSET -3.450000 0.000000 0.000000
								CHANNELS 3 Zrotation Yrotation Xrotation
								JOINT RightHandIndex1
								{
									OFFSET -0.750000 0.000000 0.000000
									CHANNELS 3 Zrotation Yrotation Xrotation
									End Site
									{
										OFFSET 0.000000 0.000000 0.000000
									}
								}
							}
						}
					}
				}
			}
		}
	}
}
MOTION
Frames: 10
Frame Time: 0.016667
0.648160 17.479080 -5.442660 -2.560520 -8.414104 8.173720 -15.016977 10.899067 3.805286 -1.063875 -8.543326 -27.177738 -12.240361 18.378537 55.157805 1.450284 11.642723 0.985984 0.450700 -0.057460 0.598030 18.870584 -8.435136 4.902914 -15.374273 9.348309 -46.818923 28.776115 -22.208165 44.319846 -1.443529 -9.717004 1.258052 -0.040290 0.257750 0.253230 -4.762435 -0.877015 -8.808520 28.868678 -7.252801 17.793335 -12.514647 -2.309083 -3.405478 6.181751 -7.056785 -5.970273 -10.996580 6.543021 24.806992 -13.385830 9.283390 -1.852770 -18.262234 13.609495 -0.650926 -47.458421 8.934875 -9.092589 0.642616 -81.466032 -3.036270 -3.576672 3.520347 0.304700 0.312050 -0.187830 0.228390 4.169868 -7.933602 2.945607 47.578055 3.088395 -8.612457 9.844319 86.501356 5.721258 1.759999 -2.344007 -0.153240 0.003440 -0.268340 -0.298320 
0.664090 17.278760 -5.494090 -1.968516 -9.775018 7.704103 -15.000660 10.648369 3.742081 -5.342928 -8.725259 -24.302916 -13.203228 18.686759 55.381373 1.473828 11.815582 0.959066 0.511140 0.029000 0.669110 18.942686 -8.347167 5.042743 -15.498510 9.463533 -48.453285 32.447868 -22.272531 41.365813 -1.458997 -9.569887 1.289917 0.051840 0.269900 0.264040 -4.944092 -0.538994 -8.773904 29.777198 -7.419961 17.593358 -13.354725 -2.820646 -0.786500 5.863511 -6.683581 -5.360464 -10.260858 6.975099 24.165642 -14.641970 9.896630 -3.446300 -18.661289 12.163876 -0.612039 -41.859173 10.238167 -10.382116 -136.869331 -87.762679 133.801775 -3.544793 2.788683 0.300760 0.358250 -0.176290 0.228640 5.430982 -7.919683 2.647119 43.049630 0.788932 -10.158612 148.977755 77.017359 137.065118 1.536102 -1.730771 -0.178820 0.058490 -0.280840 -0.323690 
0.661570 17.074290 -5.541380 -1.382476 -10.956995 6.971307 -14.978533 10.593215 3.618017 -9.272314 -8.028693 -20.403659 -13.287198 17.590852 53.029747 1.336401 11.261216 1.117113 0.580150 0.134340 0.737450 18.980749 -8.397160 5.124707 -15.124838 9.528349 -48.821391 35.762900 -21.710004 38.043933 -1.450562 -9.282537 1.359939 0.135870 0.254240 0.288240 -5.064875 -0.265319 -8.692513 29.887670 -7.290535 17.401607 -13.770706 -3.175120 2.404279 5.641182 -5.805628 -5.468803 -8.835592 7.143692 24.251232 -15.803250 10.630860 -5.033840 -19.463940 10.812729 0.100281 -35.005317 10.120213 -5.622841 158.066427 -77.563901 -161.317614 -3.867147 3.686126 0.285430 0.391330 -0.146550 0.227240 7.035595 -8.063490 2.563609 38.833842 0.011567 -5.851663 171.807935 64.921528 157.174467 1.623598 -2.372943 -0.169450 0.079430 -0.301660 -0.339630 
0.652920 16.880960 -5.577950 -1.072373 -12.504183 5.903075 -14.961761 10.760372 3.422938 -12.650489 -6.175173 -15.379609 -11.178813 15.223603 49.784517 1.124190 10.220854 1.413163 0.650190 0.231230 0.763640 18.983486 -8.503872 5.190434 -14.508875 9.886477 -48.197895 37.990660 -21.070472 35.947432 -1.480464 -9.070561 1.408278 0.178410 0.207410 0.320720 -5.112100 -0.226209 -8.599274 29.620467 -6.962795 18.087485 -13.352571 -3.186835 4.877391 5.177742 -5.480219 -6.050552 -8.585454 6.908848 25.304430 -15.986040 10.394460 -6.740610 -17.660809 9.821418 0.463483 -31.286252 10.664754 -4.836497 159.836049 -70.166458 -161.509042 -3.879021 3.695156 0.302160 0.364530 -0.090410 0.242700 6.431298 -7.483369 3.189553 36.361209 -0.841654 -3.373393 177.765063 54.392226 161.552979 1.680011 -2.527873 -0.122940 0.063350 -0.325690 -0.330220 
0.648600 16.714060 -5.617960 -0.864083 -13.776647 5.264258 -14.969426 10.873581 3.290089 -14.874399 -4.379118 -11.416845 -9.409323 13.299052 46.275918 0.930641 9.261687 1.677553 0.730830 0.331610 0.815850 18.976349 -8.517960 5.281856 -14.292902 10.371727 -48.273800 39.274444 -21.008342 35.687052 -1.540050 -9.104253 1.369150 0.225170 0.139450 0.334430 -5.107832 -0.272953 -8.551844 28.881366 -6.399258 18.674309 -12.214551 -3.021131 6.772202 4.643043 -5.178460 -6.622194 -8.261897 6.915260 25.587527 -15.434820 10.248690 -8.282930 -16.618399 8.657768 0.959098 -28.046749 11.616347 -4.267417 158.445059 -63.664452 -157.283587 -3.890108 3.702784 0.302740 0.324480 -0.051490 0.234550 6.689958 -6.502067 3.623274 33.023476 -1.592796 -1.015417 -178.773195 44.579494 165.123600 1.753033 -2.623587 -0.070980 0.026770 -0.356200 -0.332310 
0.629300 16.608310 -5.630740 -0.372237 -13.873723 3.920346 -14.989631 11.010122 3.205258 -15.846318 -2.856421 -7.285725 -8.214297 11.893321 42.877552 0.782605 8.568759 1.881903 0.745350 0.338660 0.813790 18.950324 -8.498310 5.313166 -15.691728 9.675170 -47.226533 41.623841 -22.037228 35.555510 -1.657778 -9.396804 1.269173 0.212360 0.116840 0.359880 -5.040595 -0.517213 -8.535447 27.735703 -6.615379 19.550149 -11.544312 -3.665704 8.246145 4.241778 -5.211829 -7.263034 -8.636391 7.444513 26.386567 -14.671050 10.098710 -9.996220 -15.699151 7.428421 1.601255 -26.297191 12.867851 -4.466942 158.068068 -59.613904 -155.470335 -3.899479 3.656480 0.346430 0.287910 -0.018140 0.222000 6.796223 -5.372333 4.028507 31.740132 -1.810682 0.254576 -178.048703 39.156513 165.363474 1.790016 -2.609056 -0.047230 0.020510 -0.332510 -0.332240 
0.610810 16.590450 -5.646210 -0.361050 -14.079939 2.423458 -15.009288 11.174187 3.155625 -15.716192 -1.837110 -4.312945 -7.643246 11.174080 40.432023 0.786767 8.137269 2.032891 0.723800 0.320270 0.738150 18.913020 -8.456154 5.332750 -17.279327 8.805929 -45.712373 44.536203 -23.014838 34.696142 -1.750173 -9.609482 1.224225 0.159990 0.119150 0.361140 -4.951551 -0.863433 -8.549209 27.334361 -7.697424 21.731211 -11.878145 -4.763163 7.687511 3.931745 -6.253205 -8.002804 -10.728418 9.013031 26.609591 -12.476910 9.947950 -10.051670 -14.588896 7.215474 2.437537 -27.019237 14.313294 -4.867248 159.978921 -57.527610 -158.325009 -3.848067 3.678586 0.356460 0.238050 -0.006990 0.241760 6.393325 -4.353423 4.194526 32.609817 -0.900018 0.591279 -179.613748 38.574331 161.057748 1.835494 -2.600303 -0.008260 -0.000450 -0.319970 -0.287020 
0.584560 16.657060 -5.672620 -0.493966 -14.232522 0.773823 -15.044684 11.410227 3.116292 -14.664652 -1.192578 -2.459219 -7.979747 11.185548 38.682760 0.935207 7.900383 2.147045 0.664490 0.287070 0.624410 18.846593 -8.389768 5.354197 -18.823390 8.086655 -44.111799 46.813177 -23.501756 33.653001 -1.787137 -9.677223 1.263116 0.062640 0.139910 0.340230 -4.781345 -1.347221 -8.597339 26.915115 -8.417048 25.003349 -11.891586 -5.377613 5.964506 3.994619 -7.647277 -8.971030 -13.631251 9.824910 26.712198 -10.421540 9.002100 -8.878300 -13.711072 7.248078 2.859975 -30.595943 12.917770 -5.435752 158.292019 -60.020132 -156.692427 -3.759179 3.700438 0.310280 0.193830 -0.008350 0.274760 5.430860 -2.988063 4.936538 35.261768 -0.304943 0.189738 179.216412 39.989832 158.175293 1.918352 -2.564241 0.061000 -0.019610 -0.320000 -0.199130 
0.557710 16.773250 -5.673130 -0.845829 -14.021666 0.458917 -15.069336 11.592346 3.036572 -13.346721 -0.962997 -2.186774 -8.350431 11.275899 37.495795 0.954823 7.792486 2.213850 0.580350 0.178680 0.522630 18.804859 -8.315178 5.399354 -20.550947 7.475828 -43.247190 48.383607 -23.848593 32.769946 -1.777097 -9.730131 1.287459 -0.017460 0.197080 0.318360 -4.663558 -1.733310 -8.612766 26.730236 -8.331261 25.636692 -11.462964 -5.238879 4.742038 4.170674 -8.576520 -9.766915 -15.826320 10.431229 27.228438 -8.642070 7.957820 -6.592720 -12.933953 7.490805 3.219450 -36.387467 10.975087 -5.918624 161.593151 -65.768496 -164.222070 -3.668073 3.731607 0.312410 0.189570 -0.051270 0.285430 4.364716 -2.209491 5.527660 38.699526 -0.334285 -1.153227 176.726706 43.997336 153.423575 1.917579 -2.499373 0.045390 -0.008430 -0.277570 -0.168250 
0.516930 16.931100 -5.665490 -1.560234 -13.626929 0.682721 -15.102455 11.879130 2.927740 -10.736680 -1.180441 -3.027747 -9.427468 11.881244 37.103031 1.004469 7.849464 2.205635 0.545370 0.135150 0.467580 18.738189 -8.273874 5.361382 -21.123676 7.230905 -42.272321 47.723551 -24.130429 33.214653 -1.772874 -9.748754 1.311593 -0.072320 0.218550 0.305810 -4.486454 -2.265198 -8.586991 26.137404 -8.135986 25.313743 -9.882551 -4.935518 3.612697 4.193454 -9.540038 -10.355377 -18.378754 11.202931 28.061564 -7.247180 6.971440 -5.402290 -13.740623 6.933719 3.542286 -42.475806 10.156022 -7.801239 162.362121 -74.739392 -167.998182 -3.554327 3.721437 0.319170 0.166680 -0.054550 0.298720 5.242311 -0.680641 5.833033 39.815093 -1.169436 -3.693712 171.499619 49.548237 144.395976 1.925574 -2.377817 0.059750 0.003750 -0.261790 -0.136510 
